<mxfile host="app.diagrams.net" agent="Mozilla/5.0 (Macintosh; Intel Mac OS X 10_15_7) AppleWebKit/605.1.15 (KHTML, like Gecko) Version/17.2.1 Safari/605.1.15" version="24.7.17">
  <diagram name="Page-1" id="W-1L22YGQNFjS7GTccPB">
    <mxGraphModel dx="1468" dy="865" grid="1" gridSize="10" guides="1" tooltips="1" connect="1" arrows="1" fold="1" page="1" pageScale="1" pageWidth="827" pageHeight="1169" math="0" shadow="0">
      <root>
        <mxCell id="0" />
        <mxCell id="1" parent="0" />
        <mxCell id="LdhLpx5hHXPzvsSyUZYZ-2" value="" style="html=1;jettySize=18;whiteSpace=wrap;fontSize=13;strokeColor=#333333;strokeOpacity=100;dashed=1;fixDash=1;dashPattern=16 6;strokeWidth=0.8;rounded=1;arcSize=10;edgeStyle=orthogonalEdgeStyle;startArrow=none;endArrow=none;exitX=0.5;exitY=0.532;exitPerimeter=0;lucidId=MqcVGEdurxjJ;" edge="1" parent="1" source="LdhLpx5hHXPzvsSyUZYZ-3">
          <mxGeometry width="100" height="100" relative="1" as="geometry">
            <Array as="points">
              <mxPoint x="440" y="1121" />
            </Array>
            <mxPoint x="440" y="1121" as="targetPoint" />
          </mxGeometry>
        </mxCell>
        <mxCell id="LdhLpx5hHXPzvsSyUZYZ-3" value="Employee" style="html=1;overflow=block;blockSpacing=1;shape=umlActor;labelPosition=center;verticalLabelPosition=bottom;verticalAlign=top;whiteSpace=nowrap;fontSize=16.7;align=center;spacing=0;strokeColor=#333333;strokeOpacity=100;fillOpacity=100;rounded=1;absoluteArcSize=1;arcSize=12;fillColor=#ffffff;strokeWidth=0.8;lucidId=MqcVV5ANGu6o;" vertex="1" parent="1">
          <mxGeometry x="410" y="405" width="60" height="135" as="geometry" />
        </mxCell>
        <mxCell id="LdhLpx5hHXPzvsSyUZYZ-4" value="System " style="html=1;overflow=block;blockSpacing=1;whiteSpace=wrap;fontSize=16.7;fontStyle=4;spacing=3.8;strokeColor=#3a414a;strokeOpacity=100;fillOpacity=100;rounded=1;absoluteArcSize=1;arcSize=12;fillColor=#ffffff;strokeWidth=0.8;lucidId=HZDh7TEvyjwG;" vertex="1" parent="1">
          <mxGeometry x="668" y="405" width="120" height="90" as="geometry" />
        </mxCell>
        <mxCell id="LdhLpx5hHXPzvsSyUZYZ-5" value="SMS servise" style="html=1;overflow=block;blockSpacing=1;whiteSpace=wrap;fontSize=16.7;fontStyle=4;spacing=3.8;strokeColor=#3a414a;strokeOpacity=100;fillOpacity=100;rounded=1;absoluteArcSize=1;arcSize=12;fillColor=#ffffff;strokeWidth=0.8;lucidId=RZDhsvPuVsH1;" vertex="1" parent="1">
          <mxGeometry x="945" y="405" width="120" height="90" as="geometry" />
        </mxCell>
        <mxCell id="LdhLpx5hHXPzvsSyUZYZ-7" value="" style="html=1;jettySize=18;whiteSpace=wrap;fontSize=13;strokeColor=#333333;strokeOpacity=100;dashed=1;fixDash=1;dashPattern=16 6;strokeWidth=0.8;rounded=1;arcSize=10;edgeStyle=orthogonalEdgeStyle;startArrow=none;endArrow=none;exitX=0.515;exitY=1.004;exitPerimeter=0;entryX=0.5;entryY=0.429;entryPerimeter=0;lucidId=g0DhXw1lBcT4;" edge="1" parent="1" source="LdhLpx5hHXPzvsSyUZYZ-4" target="LdhLpx5hHXPzvsSyUZYZ-35">
          <mxGeometry width="100" height="100" relative="1" as="geometry">
            <Array as="points">
              <mxPoint x="730" y="1121" />
            </Array>
          </mxGeometry>
        </mxCell>
        <mxCell id="LdhLpx5hHXPzvsSyUZYZ-9" value="" style="html=1;jettySize=18;whiteSpace=wrap;fontSize=13;strokeColor=#333333;strokeOpacity=100;dashed=1;fixDash=1;dashPattern=16 6;strokeWidth=0.8;rounded=1;arcSize=10;edgeStyle=orthogonalEdgeStyle;startArrow=none;endArrow=none;exitX=0.515;exitY=1.004;exitPerimeter=0;entryX=0.5;entryY=0.429;entryPerimeter=0;lucidId=r0Dhn~c4fW_7;" edge="1" parent="1" source="LdhLpx5hHXPzvsSyUZYZ-5" target="LdhLpx5hHXPzvsSyUZYZ-36">
          <mxGeometry width="100" height="100" relative="1" as="geometry">
            <Array as="points" />
          </mxGeometry>
        </mxCell>
        <mxCell id="LdhLpx5hHXPzvsSyUZYZ-17" value="" style="html=1;jettySize=18;whiteSpace=wrap;fontSize=13;strokeColor=#3a414a;strokeOpacity=100;strokeWidth=0.8;rounded=1;arcSize=24;edgeStyle=orthogonalEdgeStyle;startArrow=none;endArrow=block;endFill=1;lucidId=c7DhaUtXdgWN;" edge="1" parent="1">
          <mxGeometry width="100" height="100" relative="1" as="geometry">
            <Array as="points" />
            <mxPoint x="440" y="710" as="sourcePoint" />
            <mxPoint x="730" y="710" as="targetPoint" />
          </mxGeometry>
        </mxCell>
        <mxCell id="LdhLpx5hHXPzvsSyUZYZ-18" value="" style="html=1;jettySize=18;whiteSpace=wrap;fontSize=13;strokeColor=#3a414a;strokeOpacity=100;strokeWidth=0.8;rounded=1;arcSize=24;edgeStyle=orthogonalEdgeStyle;startArrow=none;endArrow=block;endFill=1;lucidId=M7DhpiS4Pj8K;" edge="1" parent="1">
          <mxGeometry width="100" height="100" relative="1" as="geometry">
            <Array as="points" />
            <mxPoint x="729" y="1020" as="sourcePoint" />
            <mxPoint x="1007" y="1020" as="targetPoint" />
          </mxGeometry>
        </mxCell>
        <mxCell id="LdhLpx5hHXPzvsSyUZYZ-20" value="" style="html=1;jettySize=18;whiteSpace=wrap;fontSize=13;strokeColor=#3a414a;strokeOpacity=100;dashed=1;fixDash=1;strokeWidth=1.5;rounded=1;arcSize=24;edgeStyle=orthogonalEdgeStyle;startArrow=none;endArrow=block;endFill=1;lucidId=Y7Dh_m0EQ7DO;" edge="1" parent="1">
          <mxGeometry width="100" height="100" relative="1" as="geometry">
            <Array as="points" />
            <mxPoint x="727" y="650" as="sourcePoint" />
            <mxPoint x="440" y="650" as="targetPoint" />
          </mxGeometry>
        </mxCell>
        <mxCell id="LdhLpx5hHXPzvsSyUZYZ-22" value="" style="html=1;jettySize=18;whiteSpace=wrap;fontSize=13;strokeColor=#3a414a;strokeOpacity=100;strokeWidth=0.8;rounded=1;arcSize=24;edgeStyle=orthogonalEdgeStyle;startArrow=none;endArrow=block;endFill=1;lucidId=s9DheGUEJsky;" edge="1" parent="1">
          <mxGeometry width="100" height="100" relative="1" as="geometry">
            <Array as="points" />
            <mxPoint x="729" y="960" as="sourcePoint" />
            <mxPoint x="441" y="960" as="targetPoint" />
          </mxGeometry>
        </mxCell>
        <mxCell id="LdhLpx5hHXPzvsSyUZYZ-28" value="" style="html=1;jettySize=18;whiteSpace=wrap;fontSize=13;strokeColor=#3a414a;strokeOpacity=100;strokeWidth=0.8;rounded=1;arcSize=24;edgeStyle=orthogonalEdgeStyle;startArrow=none;endArrow=block;endFill=1;lucidId=n_DhtnfaRdv.;" edge="1" parent="1">
          <mxGeometry width="100" height="100" relative="1" as="geometry">
            <Array as="points" />
            <mxPoint x="1006" y="1060" as="sourcePoint" />
            <mxPoint x="290" y="1060" as="targetPoint" />
          </mxGeometry>
        </mxCell>
        <mxCell id="LdhLpx5hHXPzvsSyUZYZ-34" value="" style="html=1;overflow=block;blockSpacing=1;whiteSpace=wrap;shape=mxgraph.sysml.x;strokeWidth=4;fontSize=13;spacing=0;strokeColor=#unset;rounded=1;absoluteArcSize=1;arcSize=12;fillColor=#unset;lucidId=X~DhuPADHUdG;" vertex="1" parent="1">
          <mxGeometry x="450" y="1095" width="60" height="60" as="geometry" />
        </mxCell>
        <mxCell id="LdhLpx5hHXPzvsSyUZYZ-35" value="" style="html=1;overflow=block;blockSpacing=1;whiteSpace=wrap;shape=mxgraph.sysml.x;strokeWidth=4;fontSize=13;spacing=0;strokeColor=#unset;rounded=1;absoluteArcSize=1;arcSize=12;fillColor=#unset;lucidId=2~DhCKSBP6Vf;" vertex="1" parent="1">
          <mxGeometry x="698" y="1095" width="60" height="60" as="geometry" />
        </mxCell>
        <mxCell id="LdhLpx5hHXPzvsSyUZYZ-36" value="" style="html=1;overflow=block;blockSpacing=1;whiteSpace=wrap;shape=mxgraph.sysml.x;strokeWidth=4;fontSize=13;spacing=0;strokeColor=#unset;rounded=1;absoluteArcSize=1;arcSize=12;fillColor=#unset;lucidId=6~Dh6WWZ8YxJ;" vertex="1" parent="1">
          <mxGeometry x="975" y="1095" width="60" height="60" as="geometry" />
        </mxCell>
        <mxCell id="LdhLpx5hHXPzvsSyUZYZ-38" value="&lt;span style=&quot;caret-color: rgb(0, 0, 0); color: rgb(0, 0, 0); font-family: Helvetica; font-size: medium; font-style: normal; font-variant-caps: normal; font-weight: 400; letter-spacing: normal; orphans: auto; text-align: start; text-indent: 0px; text-transform: none; white-space: normal; widows: auto; word-spacing: 0px; -webkit-text-stroke-width: 0px; background-color: rgb(251, 251, 251); text-decoration: none; display: inline !important; float: none;&quot;&gt;Create reservation&lt;/span&gt;" style="text;whiteSpace=wrap;html=1;" vertex="1" parent="1">
          <mxGeometry x="510" y="560" width="170" height="40" as="geometry" />
        </mxCell>
        <mxCell id="LdhLpx5hHXPzvsSyUZYZ-41" value="" style="html=1;jettySize=18;whiteSpace=wrap;fontSize=13;strokeColor=#3a414a;strokeOpacity=100;strokeWidth=0.8;rounded=1;arcSize=24;edgeStyle=orthogonalEdgeStyle;startArrow=none;endArrow=block;endFill=1;lucidId=g3DhM5jYOhkB;" edge="1" parent="1">
          <mxGeometry width="100" height="100" relative="1" as="geometry">
            <Array as="points" />
            <mxPoint x="440" y="600" as="sourcePoint" />
            <mxPoint x="730" y="600" as="targetPoint" />
          </mxGeometry>
        </mxCell>
        <mxCell id="LdhLpx5hHXPzvsSyUZYZ-42" value="&lt;span style=&quot;font-style: normal; font-variant-caps: normal; font-weight: 400; letter-spacing: normal; orphans: auto; text-align: start; text-indent: 0px; text-transform: none; white-space: normal; widows: auto; word-spacing: 0px; -webkit-text-stroke-width: 0px; text-decoration: none; caret-color: rgb(0, 0, 0); color: rgb(0, 0, 0); font-size: medium; float: none; display: inline !important;&quot;&gt;Show available times/services&lt;/span&gt;" style="text;whiteSpace=wrap;html=1;" vertex="1" parent="1">
          <mxGeometry x="470" y="620" width="250" height="40" as="geometry" />
        </mxCell>
        <mxCell id="LdhLpx5hHXPzvsSyUZYZ-43" value="&lt;span style=&quot;font-style: normal; font-variant-caps: normal; font-weight: 400; letter-spacing: normal; orphans: auto; text-align: start; text-indent: 0px; text-transform: none; white-space: normal; widows: auto; word-spacing: 0px; -webkit-text-stroke-width: 0px; text-decoration: none; caret-color: rgb(0, 0, 0); color: rgb(0, 0, 0); font-size: medium; float: none; display: inline !important;&quot;&gt;Select service, time, customer&lt;/span&gt;" style="text;whiteSpace=wrap;html=1;" vertex="1" parent="1">
          <mxGeometry x="470" y="680" width="250" height="40" as="geometry" />
        </mxCell>
        <mxCell id="LdhLpx5hHXPzvsSyUZYZ-44" value="&lt;span style=&quot;font-style: normal; font-variant-caps: normal; font-weight: 400; letter-spacing: normal; orphans: auto; text-align: start; text-indent: 0px; text-transform: none; white-space: normal; widows: auto; word-spacing: 0px; -webkit-text-stroke-width: 0px; text-decoration: none; caret-color: rgb(0, 0, 0); color: rgb(0, 0, 0); font-size: medium; float: none; display: inline !important;&quot;&gt;Confirm reservation&lt;/span&gt;" style="text;whiteSpace=wrap;html=1;" vertex="1" parent="1">
          <mxGeometry x="500" y="920" width="180" height="40" as="geometry" />
        </mxCell>
        <mxCell id="LdhLpx5hHXPzvsSyUZYZ-45" value="&lt;span style=&quot;font-style: normal; font-variant-caps: normal; font-weight: 400; letter-spacing: normal; orphans: auto; text-align: start; text-indent: 0px; text-transform: none; white-space: normal; widows: auto; word-spacing: 0px; -webkit-text-stroke-width: 0px; text-decoration: none; caret-color: rgb(0, 0, 0); color: rgb(0, 0, 0); font-size: medium; float: none; display: inline !important;&quot;&gt;Send SMS&lt;/span&gt;" style="text;whiteSpace=wrap;html=1;" vertex="1" parent="1">
          <mxGeometry x="820" y="980" width="110" height="50" as="geometry" />
        </mxCell>
        <mxCell id="LdhLpx5hHXPzvsSyUZYZ-47" value="Customer" style="html=1;overflow=block;blockSpacing=1;shape=umlActor;labelPosition=center;verticalLabelPosition=bottom;verticalAlign=top;whiteSpace=nowrap;fontSize=16.7;align=center;spacing=0;strokeColor=#333333;strokeOpacity=100;fillOpacity=100;rounded=1;absoluteArcSize=1;arcSize=12;fillColor=#ffffff;strokeWidth=0.8;lucidId=MqcVV5ANGu6o;" vertex="1" parent="1">
          <mxGeometry x="260" y="405" width="60" height="135" as="geometry" />
        </mxCell>
        <mxCell id="LdhLpx5hHXPzvsSyUZYZ-48" value="" style="html=1;jettySize=18;whiteSpace=wrap;fontSize=13;strokeColor=#333333;strokeOpacity=100;dashed=1;fixDash=1;dashPattern=16 6;strokeWidth=0.8;rounded=1;arcSize=10;edgeStyle=orthogonalEdgeStyle;startArrow=none;endArrow=none;exitX=0.5;exitY=0.532;exitPerimeter=0;lucidId=MqcVGEdurxjJ;" edge="1" parent="1">
          <mxGeometry width="100" height="100" relative="1" as="geometry">
            <Array as="points">
              <mxPoint x="289.09000000000003" y="1131" />
            </Array>
            <mxPoint x="289.09000000000003" y="487" as="sourcePoint" />
            <mxPoint x="289.09000000000003" y="1131" as="targetPoint" />
          </mxGeometry>
        </mxCell>
        <mxCell id="LdhLpx5hHXPzvsSyUZYZ-49" value="&lt;span style=&quot;font-style: normal; font-variant-caps: normal; font-weight: 400; letter-spacing: normal; orphans: auto; text-align: start; text-indent: 0px; text-transform: none; white-space: normal; widows: auto; word-spacing: 0px; -webkit-text-stroke-width: 0px; text-decoration: none; caret-color: rgb(0, 0, 0); color: rgb(0, 0, 0); font-size: medium; float: none; display: inline !important;&quot;&gt;Notify customer&lt;/span&gt;" style="text;whiteSpace=wrap;html=1;" vertex="1" parent="1">
          <mxGeometry x="310" y="1030" width="150" height="40" as="geometry" />
        </mxCell>
        <mxCell id="LdhLpx5hHXPzvsSyUZYZ-50" value="&lt;span style=&quot;font-style: normal; font-variant-caps: normal; font-weight: 400; letter-spacing: normal; orphans: auto; text-align: start; text-indent: 0px; text-transform: none; white-space: normal; widows: auto; word-spacing: 0px; -webkit-text-stroke-width: 0px; text-decoration: none; caret-color: rgb(0, 0, 0); color: rgb(0, 0, 0); font-size: medium; float: none; display: inline !important;&quot;&gt;Modify/cancel reservation&lt;/span&gt;" style="text;whiteSpace=wrap;html=1;" vertex="1" parent="1">
          <mxGeometry x="480" y="740" width="210" height="40" as="geometry" />
        </mxCell>
        <mxCell id="LdhLpx5hHXPzvsSyUZYZ-51" value="" style="html=1;jettySize=18;whiteSpace=wrap;fontSize=13;strokeColor=#3a414a;strokeOpacity=100;strokeWidth=0.8;rounded=1;arcSize=24;edgeStyle=orthogonalEdgeStyle;startArrow=none;endArrow=block;endFill=1;lucidId=g3DhM5jYOhkB;" edge="1" parent="1">
          <mxGeometry width="100" height="100" relative="1" as="geometry">
            <Array as="points" />
            <mxPoint x="440" y="770" as="sourcePoint" />
            <mxPoint x="730" y="770" as="targetPoint" />
          </mxGeometry>
        </mxCell>
        <mxCell id="LdhLpx5hHXPzvsSyUZYZ-52" value="&lt;span style=&quot;font-style: normal; font-variant-caps: normal; font-weight: 400; letter-spacing: normal; orphans: auto; text-align: start; text-indent: 0px; text-transform: none; white-space: normal; widows: auto; word-spacing: 0px; -webkit-text-stroke-width: 0px; text-decoration: none; caret-color: rgb(0, 0, 0); color: rgb(0, 0, 0); font-size: medium; float: none; display: inline !important;&quot;&gt;Show reservation details&lt;/span&gt;" style="text;whiteSpace=wrap;html=1;" vertex="1" parent="1">
          <mxGeometry x="480" y="800" width="210" height="40" as="geometry" />
        </mxCell>
        <mxCell id="LdhLpx5hHXPzvsSyUZYZ-53" value="" style="html=1;jettySize=18;whiteSpace=wrap;fontSize=13;strokeColor=#3a414a;strokeOpacity=100;dashed=1;fixDash=1;strokeWidth=1.5;rounded=1;arcSize=24;edgeStyle=orthogonalEdgeStyle;startArrow=none;endArrow=block;endFill=1;lucidId=Y7Dh_m0EQ7DO;" edge="1" parent="1">
          <mxGeometry width="100" height="100" relative="1" as="geometry">
            <Array as="points" />
            <mxPoint x="728.5" y="830" as="sourcePoint" />
            <mxPoint x="441.5" y="830" as="targetPoint" />
          </mxGeometry>
        </mxCell>
        <mxCell id="LdhLpx5hHXPzvsSyUZYZ-54" value="&lt;span style=&quot;font-style: normal; font-variant-caps: normal; font-weight: 400; letter-spacing: normal; orphans: auto; text-align: start; text-indent: 0px; text-transform: none; white-space: normal; widows: auto; word-spacing: 0px; -webkit-text-stroke-width: 0px; text-decoration: none; caret-color: rgb(0, 0, 0); color: rgb(0, 0, 0); font-size: medium; float: none; display: inline !important;&quot;&gt;Submit changes/cancel&lt;/span&gt;" style="text;whiteSpace=wrap;html=1;" vertex="1" parent="1">
          <mxGeometry x="490" y="850" width="200" height="40" as="geometry" />
        </mxCell>
        <mxCell id="LdhLpx5hHXPzvsSyUZYZ-55" value="" style="html=1;jettySize=18;whiteSpace=wrap;fontSize=13;strokeColor=#3a414a;strokeOpacity=100;strokeWidth=0.8;rounded=1;arcSize=24;edgeStyle=orthogonalEdgeStyle;startArrow=none;endArrow=block;endFill=1;lucidId=g3DhM5jYOhkB;" edge="1" parent="1">
          <mxGeometry width="100" height="100" relative="1" as="geometry">
            <Array as="points" />
            <mxPoint x="440" y="890" as="sourcePoint" />
            <mxPoint x="730" y="890" as="targetPoint" />
          </mxGeometry>
        </mxCell>
      </root>
    </mxGraphModel>
  </diagram>
</mxfile>
